<svg width="272" height="272" viewBox="0 0 272 272" fill="none" xmlns="http://www.w3.org/2000/svg">
<circle cx="131.667" cy="136" r="107.667" fill="#E4E4E4"/>
<circle cx="131.667" cy="136" r="86.8889" fill="#FAFAFA"/>
<path d="M39.315 172H26.65V111.31H61.415V121.85H39.315V137.49H59.885V148.03H39.315V172ZM84.9454 125.59V172H72.2804V125.59H84.9454ZM78.6554 107.4C80.5254 107.4 82.1404 107.853 83.5004 108.76C84.8604 109.61 85.5404 111.225 85.5404 113.605C85.5404 115.928 84.8604 117.543 83.5004 118.45C82.1404 119.357 80.5254 119.81 78.6554 119.81C76.7287 119.81 75.0854 119.357 73.7254 118.45C72.4221 117.543 71.7704 115.928 71.7704 113.605C71.7704 111.225 72.4221 109.61 73.7254 108.76C75.0854 107.853 76.7287 107.4 78.6554 107.4ZM116.879 111.31C122.375 111.31 126.909 111.99 130.479 113.35C134.049 114.653 136.712 116.665 138.469 119.385C140.225 122.048 141.104 125.42 141.104 129.5C141.104 132.277 140.565 134.713 139.489 136.81C138.469 138.85 137.08 140.607 135.324 142.08C133.624 143.497 131.782 144.658 129.799 145.565L147.649 172H133.369L118.919 148.71H112.034V172H99.1988V111.31H116.879ZM115.944 121.85H112.034V138.255H116.199C119.032 138.255 121.327 137.943 123.084 137.32C124.84 136.697 126.115 135.762 126.909 134.515C127.702 133.212 128.099 131.653 128.099 129.84C128.099 127.913 127.645 126.383 126.739 125.25C125.889 124.06 124.557 123.21 122.744 122.7C120.987 122.133 118.72 121.85 115.944 121.85ZM191.097 155.17C191.097 158.74 190.219 161.857 188.462 164.52C186.705 167.183 184.155 169.252 180.812 170.725C177.525 172.142 173.502 172.85 168.742 172.85C166.645 172.85 164.577 172.708 162.537 172.425C160.554 172.142 158.627 171.745 156.757 171.235C154.944 170.668 153.215 169.988 151.572 169.195V157.21C154.462 158.457 157.437 159.618 160.497 160.695C163.614 161.715 166.702 162.225 169.762 162.225C171.859 162.225 173.53 161.942 174.777 161.375C176.08 160.808 177.015 160.043 177.582 159.08C178.205 158.117 178.517 157.012 178.517 155.765C178.517 154.235 177.979 152.932 176.902 151.855C175.882 150.778 174.494 149.787 172.737 148.88C170.98 147.917 168.969 146.897 166.702 145.82C165.285 145.14 163.755 144.347 162.112 143.44C160.469 142.477 158.882 141.315 157.352 139.955C155.879 138.538 154.66 136.838 153.697 134.855C152.734 132.872 152.252 130.492 152.252 127.715C152.252 124.088 153.074 121 154.717 118.45C156.417 115.843 158.797 113.86 161.857 112.5C164.974 111.14 168.629 110.46 172.822 110.46C175.995 110.46 178.999 110.828 181.832 111.565C184.722 112.302 187.725 113.35 190.842 114.71L186.677 124.74C183.9 123.607 181.407 122.728 179.197 122.105C176.987 121.482 174.72 121.17 172.397 121.17C170.81 121.17 169.45 121.425 168.317 121.935C167.184 122.445 166.305 123.153 165.682 124.06C165.115 124.967 164.832 126.043 164.832 127.29C164.832 128.707 165.257 129.925 166.107 130.945C166.957 131.908 168.232 132.843 169.932 133.75C171.632 134.657 173.757 135.733 176.307 136.98C179.424 138.453 182.059 139.983 184.212 141.57C186.422 143.157 188.122 145.027 189.312 147.18C190.502 149.333 191.097 151.997 191.097 155.17ZM225.504 172H212.669V122.02H196.179V111.31H241.994V122.02H225.504V172Z" fill="black"/>
<circle cx="82.5" cy="107.5" r="15.5" fill="#FAFAFA"/>
</svg>
